<svg width="1718" height="377" viewBox="0 0 1718 377" fill="none" xmlns="http://www.w3.org/2000/svg">
<g clip-path="url(#clip0_391_82)">
<path d="M79.216 284.021L0.333405 346V18.3958C0.333405 8.61588 8.26178 0.6875 18.0417 0.6875H336.792C346.572 0.6875 354.5 8.61588 354.5 18.3958V130.5H336.792H319.083L256.054 200.396L239.5 248.604V266.312V284.021H79.216ZM66.9667 248.604H239.5L256.054 200.396L319.083 130.5V36.1042H35.7501V273.132L66.9667 248.604Z" fill="#60A5FA"/>
<path d="M319.1 119H354.5V132C354.5 134.209 352.709 136 350.5 136H323.1C320.891 136 319.1 134.209 319.1 132V119Z" fill="#60A5FA"/>
<path d="M228 284L228 248.6L241 248.6C243.209 248.6 245 250.391 245 252.6L245 280C245 282.209 243.209 284 241 284L228 284Z" fill="#60A5FA"/>
<rect x="74" y="73" width="193" height="28" rx="4" fill="#60A5FA"/>
<rect x="74" y="117" width="193" height="28" rx="4" fill="#60A5FA"/>
<rect x="74" y="161" width="164" height="28" rx="4" fill="#60A5FA"/>
</g>
<path d="M300.8 204.5V161H394.7V204.5H300.8ZM300.8 286.7V245.9H391.7V286.7H300.8ZM267.2 161H315.8V371H267.2V161ZM489.638 374C473.638 374 459.738 371.1 447.938 365.3C436.338 359.3 427.338 350.9 420.938 340.1C414.538 329.3 411.338 316.6 411.338 302C411.338 287.2 414.438 274.4 420.638 263.6C426.838 252.8 435.738 244.5 447.338 238.7C459.138 232.9 473.038 230 489.038 230C505.038 230 518.538 232.8 529.538 238.4C540.538 243.8 548.938 251.7 554.738 262.1C560.538 272.5 563.438 285.1 563.438 299.9C563.438 302.1 563.438 304.3 563.438 306.5C563.438 308.5 563.238 310.2 562.838 311.6H436.838V286.4H522.038L511.238 300.2C512.238 298.8 513.038 297.1 513.638 295.1C514.438 292.9 514.838 291.1 514.838 289.7C514.838 283.7 513.738 278.5 511.538 274.1C509.338 269.7 506.238 266.3 502.238 263.9C498.238 261.5 493.538 260.3 488.138 260.3C481.338 260.3 475.638 261.8 471.038 264.8C466.438 267.8 462.938 272.4 460.538 278.6C458.338 284.6 457.138 292.2 456.938 301.4C456.938 309.8 458.138 317 460.538 323C462.938 329 466.538 333.6 471.338 336.8C476.138 339.8 482.038 341.3 489.038 341.3C497.038 341.3 503.838 339.8 509.438 336.8C515.238 333.8 519.838 329.3 523.238 323.3L563.738 333.2C556.538 346.8 546.738 357 534.338 363.8C522.138 370.6 507.238 374 489.638 374ZM661.611 374C645.611 374 631.711 371.1 619.911 365.3C608.311 359.3 599.311 350.9 592.911 340.1C586.511 329.3 583.311 316.6 583.311 302C583.311 287.2 586.411 274.4 592.611 263.6C598.811 252.8 607.711 244.5 619.311 238.7C631.111 232.9 645.011 230 661.011 230C677.011 230 690.511 232.8 701.511 238.4C712.511 243.8 720.911 251.7 726.711 262.1C732.511 272.5 735.411 285.1 735.411 299.9C735.411 302.1 735.411 304.3 735.411 306.5C735.411 308.5 735.211 310.2 734.811 311.6H608.811V286.4H694.011L683.211 300.2C684.211 298.8 685.011 297.1 685.611 295.1C686.411 292.9 686.811 291.1 686.811 289.7C686.811 283.7 685.711 278.5 683.511 274.1C681.311 269.7 678.211 266.3 674.211 263.9C670.211 261.5 665.511 260.3 660.111 260.3C653.311 260.3 647.611 261.8 643.011 264.8C638.411 267.8 634.911 272.4 632.511 278.6C630.311 284.6 629.111 292.2 628.911 301.4C628.911 309.8 630.111 317 632.511 323C634.911 329 638.511 333.6 643.311 336.8C648.111 339.8 654.011 341.3 661.011 341.3C669.011 341.3 675.811 339.8 681.411 336.8C687.211 333.8 691.811 329.3 695.211 323.3L735.711 333.2C728.511 346.8 718.711 357 706.311 363.8C694.111 370.6 679.211 374 661.611 374ZM868.084 137H913.384V371H868.084V137ZM755.284 302C755.284 286.4 758.384 273.3 764.584 262.7C770.984 252.1 779.184 244 789.184 238.4C799.184 232.8 809.784 230 820.984 230C832.584 230 842.784 232.9 851.584 238.7C860.584 244.5 867.684 252.8 872.884 263.6C878.084 274.2 880.684 287 880.684 302C880.684 316.8 878.084 329.6 872.884 340.4C867.684 351.2 860.584 359.5 851.584 365.3C842.784 371.1 832.584 374 820.984 374C809.784 374 799.184 371.2 789.184 365.6C779.184 360 770.984 351.9 764.584 341.3C758.384 330.5 755.284 317.4 755.284 302ZM802.984 302C802.984 309.2 804.484 315.5 807.484 320.9C810.484 326.1 814.484 330.2 819.484 333.2C824.484 336 829.984 337.4 835.984 337.4C841.184 337.4 846.184 336 850.984 333.2C855.984 330.4 860.084 326.4 863.284 321.2C866.484 315.8 868.084 309.4 868.084 302C868.084 294.6 866.484 288.3 863.284 283.1C860.084 277.7 855.984 273.6 850.984 270.8C846.184 268 841.184 266.6 835.984 266.6C829.984 266.6 824.484 268.1 819.484 271.1C814.484 273.9 810.484 278 807.484 283.4C804.484 288.6 802.984 294.8 802.984 302ZM996.24 266C996.24 278.8 999.14 289.9 1004.94 299.3C1010.74 308.5 1018.34 315.5 1027.74 320.3C1037.34 325.1 1047.84 327.5 1059.24 327.5C1069.24 327.5 1078.04 326.2 1085.64 323.6C1093.24 321 1100.04 317.6 1106.04 313.4C1112.04 309.2 1117.34 304.7 1121.94 299.9V354.5C1113.54 361.1 1104.34 366.3 1094.34 370.1C1084.34 373.9 1071.64 375.8 1056.24 375.8C1039.44 375.8 1023.94 373.2 1009.74 368C995.54 362.8 983.34 355.3 973.14 345.5C962.94 335.7 955.04 324.1 949.44 310.7C943.84 297.3 941.04 282.4 941.04 266C941.04 249.6 943.84 234.7 949.44 221.3C955.04 207.9 962.94 196.3 973.14 186.5C983.34 176.7 995.54 169.2 1009.74 164C1023.94 158.8 1039.44 156.2 1056.24 156.2C1071.64 156.2 1084.34 158.1 1094.34 161.9C1104.34 165.7 1113.54 170.9 1121.94 177.5V232.1C1117.34 227.3 1112.04 222.8 1106.04 218.6C1100.04 214.2 1093.24 210.8 1085.64 208.4C1078.04 205.8 1069.24 204.5 1059.24 204.5C1047.84 204.5 1037.34 206.9 1027.74 211.7C1018.34 216.5 1010.74 223.5 1004.94 232.7C999.14 241.9 996.24 253 996.24 266ZM1193.99 327.8C1193.99 331.4 1194.89 334.5 1196.69 337.1C1198.49 339.5 1200.89 341.4 1203.89 342.8C1206.89 344 1210.19 344.6 1213.79 344.6C1218.99 344.6 1223.79 343.5 1228.19 341.3C1232.59 339.1 1236.19 335.8 1238.99 331.4C1241.79 327 1243.19 321.6 1243.19 315.2L1247.99 333.2C1247.99 342 1245.59 349.5 1240.79 355.7C1235.99 361.7 1229.79 366.3 1222.19 369.5C1214.59 372.5 1206.39 374 1197.59 374C1188.79 374 1180.59 372.4 1172.99 369.2C1165.59 365.8 1159.59 360.8 1154.99 354.2C1150.59 347.6 1148.39 339.6 1148.39 330.2C1148.39 317 1153.09 306.6 1162.49 299C1171.89 291.2 1185.19 287.3 1202.39 287.3C1210.79 287.3 1218.29 288.1 1224.89 289.7C1231.69 291.3 1237.49 293.3 1242.29 295.7C1247.09 298.1 1250.69 300.6 1253.09 303.2V323.3C1248.29 319.7 1242.69 317 1236.29 315.2C1230.09 313.2 1223.49 312.2 1216.49 312.2C1211.09 312.2 1206.79 312.8 1203.59 314C1200.39 315.2 1197.99 317 1196.39 319.4C1194.79 321.6 1193.99 324.4 1193.99 327.8ZM1173.89 275.3L1158.59 245C1166.39 241.2 1175.79 237.6 1186.79 234.2C1197.79 230.8 1209.79 229.1 1222.79 229.1C1234.99 229.1 1245.89 230.9 1255.49 234.5C1265.09 237.9 1272.69 242.9 1278.29 249.5C1283.89 256.1 1286.69 264.2 1286.69 273.8V371H1243.19V284C1243.19 280.6 1242.59 277.7 1241.39 275.3C1240.39 272.7 1238.79 270.5 1236.59 268.7C1234.39 266.9 1231.59 265.6 1228.19 264.8C1224.99 264 1221.29 263.6 1217.09 263.6C1210.89 263.6 1204.79 264.3 1198.79 265.7C1192.99 267.1 1187.89 268.8 1183.49 270.8C1179.09 272.6 1175.89 274.1 1173.89 275.3ZM1304.41 233H1396.81V270.5H1304.41V233ZM1328.71 185H1372.21V371H1328.71V185ZM1454.22 302C1454.22 309.4 1455.82 315.8 1459.02 321.2C1462.22 326.4 1466.62 330.5 1472.22 333.5C1478.02 336.5 1484.22 338 1490.82 338C1496.42 338 1501.72 337.2 1506.72 335.6C1511.92 333.8 1516.62 331.4 1520.82 328.4C1525.22 325.4 1528.82 321.7 1531.62 317.3V361.4C1526.82 365.2 1520.82 368.3 1513.62 370.7C1506.42 372.9 1497.62 374 1487.22 374C1472.02 374 1458.32 371 1446.12 365C1434.12 359 1424.62 350.6 1417.62 339.8C1410.82 329 1407.42 316.4 1407.42 302C1407.42 287.4 1410.82 274.8 1417.62 264.2C1424.62 253.4 1434.12 245 1446.12 239C1458.32 233 1472.02 230 1487.22 230C1497.62 230 1506.42 231.2 1513.62 233.6C1520.82 235.8 1526.82 238.6 1531.62 242V286.4C1528.82 282 1525.12 278.3 1520.52 275.3C1516.12 272.3 1511.32 270 1506.12 268.4C1500.92 266.8 1495.82 266 1490.82 266C1484.22 266 1478.02 267.6 1472.22 270.8C1466.62 274 1462.22 278.3 1459.02 283.7C1455.82 289.1 1454.22 295.2 1454.22 302ZM1609.96 137V371H1564.36V137H1609.96ZM1654.06 287C1654.06 278.8 1652.56 272.5 1649.56 268.1C1646.56 263.7 1641.36 261.5 1633.96 261.5C1629.16 261.5 1624.96 262.6 1621.36 264.8C1617.76 266.8 1614.96 269.7 1612.96 273.5C1610.96 277.1 1609.96 281.6 1609.96 287H1602.16C1602.16 276 1603.96 266.1 1607.56 257.3C1611.16 248.3 1616.56 241.2 1623.76 236C1631.16 230.6 1640.56 227.9 1651.96 227.9C1663.36 227.9 1672.46 229.9 1679.26 233.9C1686.26 237.9 1691.36 243.8 1694.56 251.6C1697.76 259.4 1699.36 269 1699.36 280.4V371H1654.06V287Z" fill="url(#paint0_linear_391_82)"/>
<defs>
<linearGradient id="paint0_linear_391_82" x1="245" y1="371" x2="1685" y2="135.5" gradientUnits="userSpaceOnUse">
<stop stop-color="#44403C"/>
<stop offset="0.484908" stop-color="#18181B"/>
<stop offset="1" stop-color="#44403C"/>
</linearGradient>
<clipPath id="clip0_391_82">
<rect width="355" height="346" fill="white"/>
</clipPath>
</defs>
</svg>
